<svg id="Layer_1" data-name="Layer 1" xmlns="http://www.w3.org/2000/svg" viewBox="0 0 12827.65 2898.59"><defs><style>.cls-1,.cls-2{fill:#fff;stroke:#000;}.cls-2{stroke-miterlimit:10;}</style></defs><title>mantiksal-full-beyaz-logo</title><path class="cls-1" d="M5183.52,1095.67v895.54H4996.69c-14.76,0-27-12.73-27-27.84V1083c0-80.86-64-149.18-145.12-149.18H4505c24.57,15.11,44.19,40.39,44.19,70.79v986.57H4362.31c-14.76,0-27-12.73-27-27.84V961.7c0-15.21-12.28-27.84-27-27.84H3936.95c-12.28,0-22.09,10-24.57,22.79V1963.37c0,15.11-12.28,27.84-27,27.84H3698.46V890.82c0-91.11,71.32-164.39,159.83-164.39h966.24C5023.73,726.43,5183.52,890.82,5183.52,1095.67Z" transform="translate(-31.47 -93.5)"/><path class="cls-1" d="M6393.81,1080.57v829.6c0,45.6-34.42,81-78.61,81H5739.81c-199.16,0-358.95-164.39-358.95-369.33v-78.39c0-205,159.79-369.34,358.95-369.34h415.51c14.76,0,27-12.63,27-27.83V1083c0-80.86-51.61-149.18-147.5-149.18H5545.56c-14.76,0-27-12.73-27-27.94V726.43h516.26C6234,726.43,6393.81,850.42,6393.81,1080.57Zm-654,695.53h418c14.76,0,24.52-12.55,24.52-27.66v-402.3c-12.24,22.81-36.85,35.44-63.9,37.92H5739.81c-81.13,0-145.12,65.84-145.12,149.26v93.6C5594.7,1710.35,5658.68,1776.09,5739.81,1776.09Z" transform="translate(-31.47 -93.5)"/><path class="cls-1" d="M7633,1095.67v895.54H7446.13c-14.8,0-27-12.73-27-27.84V1083c0-80.86-63.94-149.18-145.12-149.18H6829c-14.8,0-27.18,12.63-27.18,27.84V1963.37c0,15.11-12.2,27.84-27,27.84H6588V890.82c0-91.11,71.32-164.39,159.88-164.39H7274C7473.13,726.43,7633,890.82,7633,1095.67Z" transform="translate(-31.47 -93.5)"/><path class="cls-1" d="M8434.5,1809.06v182.15H8186.16c-196.73,0-359-164.39-359-369.33V114.32h186.74c14.89,0,27.18,12.55,27.18,27.76V774.51c12.29-27.84,39.29-45.51,71.23-45.51H8373V911.05c0,15.21-12.29,25.28-27.09,25.28H8041.09V1632c0,83.42,63.9,149.18,145.07,149.18h221.25C8422.13,1781.22,8434.5,1793.86,8434.5,1809.06Z" transform="translate(-31.47 -93.5)"/><path class="cls-1" d="M8842.41,751.71v1239.5H8655.58c-14.71,0-27-12.73-27-27.84V726.43h186.83C8830.13,726.43,8842.41,736.51,8842.41,751.71Z" transform="translate(-31.47 -93.5)"/><path class="cls-1" d="M10066.84,1991.21H9855.4c-17.19,0-32-10.16-39.29-25.28l-241-498.27H9277.67c-14.72,0-27.09,12.55-27.09,27.75v468c0,15.11-12.28,27.84-27.09,27.84H9036.58V114.32H9223.5c14.8,0,27.09,12.55,27.09,27.76v1161c12.37-25.37,36.85-43,66.37-43h302.47c81.09,0,145-68.31,145-151.74V754.27c0-15.19,12.37-27.84,27-27.84h186.92v371.8c0,139.2-73.89,260.54-186.92,323.74Z" transform="translate(-31.47 -93.5)"/><path class="cls-1" d="M10181.3,1229.74V1060.33c0-204.86,137.69-333.9,337-333.9h673.62V905.92c0,15.21-12.28,27.94-27,27.94h-646.62c-81.09,0-123.07,40.39-123.07,123.9v73.45c0,12.55,9.94,22.81,22.18,27.84l759.7,184.54c39.42,7.6,66.42,43,66.42,83.51V1652.2c0,220-152.41,339-351.61,339h-695.8V1811.62c0-15.19,12.37-27.84,27.09-27.84h668.71c81.09,0,152.45-48.08,152.45-131.59V1533.32c0-12.63-9.85-22.8-22.05-25.27l-772-194.78C10210.81,1305.66,10181.3,1270.31,10181.3,1229.74Z" transform="translate(-31.47 -93.5)"/><path class="cls-1" d="M12450.62,1080.57v829.6c0,45.6-34.29,81-78.52,81h-575.38c-199.25,0-359-164.39-359-369.33v-78.39c0-205,159.75-369.34,359-369.34h415.55c14.72,0,27-12.63,27-27.83V1083c0-80.86-51.66-149.18-147.55-149.18H11602.5c-14.8,0-27-12.73-27-27.94V726.43h516.22C12290.92,726.43,12450.62,850.42,12450.62,1080.57Zm-653.91,695.53h417.9c14.8,0,24.66-12.55,24.66-27.66v-402.3c-12.29,22.81-36.85,35.44-63.94,37.92h-378.61c-81.09,0-145.12,65.84-145.12,149.26v93.6C11651.59,1710.35,11715.62,1776.09,11796.71,1776.09Z" transform="translate(-31.47 -93.5)"/><path class="cls-1" d="M12858.62,121.84V1991.21h-186.83c-14.8,0-27-12.73-27-27.84V94h186.74C12846.33,94,12858.62,106.72,12858.62,121.84Z" transform="translate(-31.47 -93.5)"/><polygon class="cls-2" points="2285.07 464.04 2673.45 985.2 1656.57 1751.53 639.65 985.2 1028.03 464.04 2285.07 464.04"/><polygon class="cls-2" points="3312.64 630.46 2811.23 985.2 2128.16 2897.01 3312.64 1898.32 3312.64 630.46"/><polygon class="cls-2" points="0.5 632.22 501.96 985.2 1184.94 2897.01 0.5 1898.32 0.5 632.22"/></svg>